<svg xmlns="http://www.w3.org/2000/svg" viewBox="0 0 405 275"><defs><style>.cls-1{fill:#fff;stroke:#000;stroke-linecap:round;stroke-linejoin:round;stroke-width:5px;}.cls-2{fill:#10d920;}</style></defs><title>Dorian Clover Logo</title><g id="Слой_2" data-name="Слой 2"><path class="cls-1" d="M402.5,105V12.92A10.42,10.42,0,0,0,392.08,2.5H299.5"/><path class="cls-1" d="M299.5,272.5h92.58a10.42,10.42,0,0,0,10.42-10.42V169"/><path class="cls-1" d="M2.5,170v92.08A10.42,10.42,0,0,0,12.92,272.5H105.5"/><path class="cls-1" d="M105.5,2.5H12.92A10.42,10.42,0,0,0,2.5,12.92V105"/></g><g id="Слой_1" data-name="Слой 1"><path id="Клевер" class="cls-2" d="M188.68,203.19h-5.23c-1.07-1.69-2.33-3.22,0-5.1,14.57-11.87,18.89-27.78,17.71-45.76a20.51,20.51,0,0,0-1.19-4.2l-1.55-.1c-1,3.48-2.2,6.93-3,10.45-1.48,6.42-3.43,12.55-8,17.57-9.27,10.24-21.5,4.89-25-4.7-1.39-3.77-4.37-7-6.93-10.26-1.88-2.38-4.45-4.2-6.38-6.54-7.61-9.21-4.78-20,6.72-23.48,5.83-1.79,12.21-1.75,18.34-2.56,1.68-.22,3.34-.5,5-.75l.09-1.62-6.75-1.74c-5.83-1.51-12.13-2.07-17.37-4.74-8.76-4.46-14.5-15.18-2.25-24.82a31.41,31.41,0,0,1,3.07-2.43c5.1-3.06,8.61-7.35,11.71-12.48,4.8-7.93,15.43-11.87,23.54-2.22a24.49,24.49,0,0,1,4.92,9.05c1.3,4.84,1.56,9.95,2.29,14.94.41,2.79.86,5.58,5.06,5.7.39-1.43.92-2.9,1.19-4.42,1.13-6.24,1.83-12.59,3.37-18.72,1.71-6.8,6.72-10.92,13.41-12.23,6.3-1.24,10.5,3,13.56,7.65a46.36,46.36,0,0,0,14.53,14.46c10.71,6.75,10,19.53-1.2,25.52-4.06,2.18-9,2.78-13.59,3.85-3.82.89-7.73,1.41-11.6,2.1l.22,2.11a89.69,89.69,0,0,0,10.08.71c11.24-.42,21,2.06,26.76,12.85v7c-1.58,2-2.9,4.27-4.79,5.92a69,69,0,0,0-16.24,20.55,12.43,12.43,0,0,1-19.7,3.23,33.42,33.42,0,0,1-7.53-10.89c-2.16-5-3.08-10.49-4.67-15.73a25.68,25.68,0,0,0-2.14-4.17l-1.22.28c-.23,1.94-.57,3.88-.66,5.84-.34,7.08,0,14.24-1,21.22C200.66,185.32,197.72,195.77,188.68,203.19Z"/></g></svg>